solid buildings
 facet normal 0 -1 0
  outer loop
   vertex 0 12 1.5
   vertex 0 12 0
   vertex 3.5 12 0
  endloop
 endfacet
 facet normal 0 -1 0
  outer loop
   vertex 0 12 1.5
   vertex 3.5 12 3
   vertex 0 12 3
  endloop
 endfacet
 facet normal -0 -1 0
  outer loop
   vertex 7 12 1.5
   vertex 0 12 1.5
   vertex 3.5 12 0
  endloop
 endfacet
 facet normal 0 -1 0
  outer loop
   vertex 0 12 1.5
   vertex 7 12 1.5
   vertex 3.5 12 3
  endloop
 endfacet
 facet normal 0 -1 0
  outer loop
   vertex 7 12 1.5
   vertex 7 12 3
   vertex 3.5 12 3
  endloop
 endfacet
 facet normal 0 -1 0
  outer loop
   vertex 7 12 0
   vertex 7 12 1.5
   vertex 3.5 12 0
  endloop
 endfacet
 facet normal 1 0 0
  outer loop
   vertex 7 12 1.5
   vertex 7 12 0
   vertex 7 13.5 0
  endloop
 endfacet
 facet normal 1 0 0
  outer loop
   vertex 7 12 1.5
   vertex 7 13.5 3
   vertex 7 12 3
  endloop
 endfacet
 facet normal 1 0 0
  outer loop
   vertex 7 15 1.5
   vertex 7 12 1.5
   vertex 7 13.5 0
  endloop
 endfacet
 facet normal 1 0 0
  outer loop
   vertex 7 12 1.5
   vertex 7 15 1.5
   vertex 7 13.5 3
  endloop
 endfacet
 facet normal 1 0 -0
  outer loop
   vertex 7 15 1.5
   vertex 7 15 3
   vertex 7 13.5 3
  endloop
 endfacet
 facet normal 1 0 -0
  outer loop
   vertex 7 15 0
   vertex 7 15 1.5
   vertex 7 13.5 0
  endloop
 endfacet
 facet normal 0 1 0
  outer loop
   vertex 7 15 1.5
   vertex 7 15 0
   vertex 3.5 15 0
  endloop
 endfacet
 facet normal 0 1 -0
  outer loop
   vertex 7 15 1.5
   vertex 3.5 15 3
   vertex 7 15 3
  endloop
 endfacet
 facet normal -0 1 0
  outer loop
   vertex 0 15 1.5
   vertex 7 15 1.5
   vertex 3.5 15 0
  endloop
 endfacet
 facet normal 0 1 0
  outer loop
   vertex 7 15 1.5
   vertex 0 15 1.5
   vertex 3.5 15 3
  endloop
 endfacet
 facet normal 0 1 0
  outer loop
   vertex 0 15 1.5
   vertex 0 15 3
   vertex 3.5 15 3
  endloop
 endfacet
 facet normal 0 1 0
  outer loop
   vertex 0 15 0
   vertex 0 15 1.5
   vertex 3.5 15 0
  endloop
 endfacet
 facet normal -1 0 -0
  outer loop
   vertex 0 15 1.5
   vertex 0 15 0
   vertex 0 13.5 0
  endloop
 endfacet
 facet normal -1 0 0
  outer loop
   vertex 0 15 1.5
   vertex 0 13.5 3
   vertex 0 15 3
  endloop
 endfacet
 facet normal -1 0 0
  outer loop
   vertex 0 12 1.5
   vertex 0 15 1.5
   vertex 0 13.5 0
  endloop
 endfacet
 facet normal -1 0 0
  outer loop
   vertex 0 15 1.5
   vertex 0 12 1.5
   vertex 0 13.5 3
  endloop
 endfacet
 facet normal -1 0 0
  outer loop
   vertex 0 12 1.5
   vertex 0 12 3
   vertex 0 13.5 3
  endloop
 endfacet
 facet normal -1 0 0
  outer loop
   vertex 0 12 0
   vertex 0 12 1.5
   vertex 0 13.5 0
  endloop
 endfacet
 facet normal 0 0 -1
  outer loop
   vertex 3.5 12 0
   vertex 0 12 0
   vertex 0 13.5 0
  endloop
 endfacet
 facet normal 0 0 -1
  outer loop
   vertex 3.5 12 0
   vertex 7 13.5 0
   vertex 7 12 0
  endloop
 endfacet
 facet normal 0 -0 -1
  outer loop
   vertex 3.5 15 0
   vertex 3.5 12 0
   vertex 0 13.5 0
  endloop
 endfacet
 facet normal 0 0 -1
  outer loop
   vertex 3.5 12 0
   vertex 3.5 15 0
   vertex 7 13.5 0
  endloop
 endfacet
 facet normal 0 0 -1
  outer loop
   vertex 3.5 15 0
   vertex 7 15 0
   vertex 7 13.5 0
  endloop
 endfacet
 facet normal 0 0 -1
  outer loop
   vertex 0 15 0
   vertex 3.5 15 0
   vertex 0 13.5 0
  endloop
 endfacet
 facet normal 0 0 1
  outer loop
   vertex 0 13.5 3
   vertex 0 12 3
   vertex 3.5 12 3
  endloop
 endfacet
 facet normal 0 0 1
  outer loop
   vertex 0 13.5 3
   vertex 3.5 15 3
   vertex 0 15 3
  endloop
 endfacet
 facet normal 0 0 1
  outer loop
   vertex 7 13.5 3
   vertex 0 13.5 3
   vertex 3.5 12 3
  endloop
 endfacet
 facet normal 0 0 1
  outer loop
   vertex 0 13.5 3
   vertex 7 13.5 3
   vertex 3.5 15 3
  endloop
 endfacet
 facet normal 0 -0 1
  outer loop
   vertex 7 13.5 3
   vertex 7 15 3
   vertex 3.5 15 3
  endloop
 endfacet
 facet normal 0 -0 1
  outer loop
   vertex 7 12 3
   vertex 7 13.5 3
   vertex 3.5 12 3
  endloop
 endfacet
endsolid buildings
