solid buildings
 facet normal 0 -1 0
  outer loop
   vertex 0 0 1.5
   vertex 0 0 0
   vertex 3.5 0 0
  endloop
 endfacet
 facet normal 0 -1 0
  outer loop
   vertex 0 0 1.5
   vertex 3.5 0 3
   vertex 0 0 3
  endloop
 endfacet
 facet normal -0 -1 0
  outer loop
   vertex 7 0 1.5
   vertex 0 0 1.5
   vertex 3.5 0 0
  endloop
 endfacet
 facet normal 0 -1 0
  outer loop
   vertex 0 0 1.5
   vertex 7 0 1.5
   vertex 3.5 0 3
  endloop
 endfacet
 facet normal 0 -1 0
  outer loop
   vertex 7 0 1.5
   vertex 7 0 3
   vertex 3.5 0 3
  endloop
 endfacet
 facet normal 0 -1 0
  outer loop
   vertex 7 0 0
   vertex 7 0 1.5
   vertex 3.5 0 0
  endloop
 endfacet
 facet normal 1 0 0
  outer loop
   vertex 7 0 1.5
   vertex 7 0 0
   vertex 7 1.5 0
  endloop
 endfacet
 facet normal 1 0 0
  outer loop
   vertex 7 0 1.5
   vertex 7 1.5 3
   vertex 7 0 3
  endloop
 endfacet
 facet normal 1 0 0
  outer loop
   vertex 7 3 1.5
   vertex 7 0 1.5
   vertex 7 1.5 0
  endloop
 endfacet
 facet normal 1 0 0
  outer loop
   vertex 7 0 1.5
   vertex 7 3 1.5
   vertex 7 1.5 3
  endloop
 endfacet
 facet normal 1 0 -0
  outer loop
   vertex 7 3 1.5
   vertex 7 3 3
   vertex 7 1.5 3
  endloop
 endfacet
 facet normal 1 0 -0
  outer loop
   vertex 7 3 0
   vertex 7 3 1.5
   vertex 7 1.5 0
  endloop
 endfacet
 facet normal 0 1 0
  outer loop
   vertex 7 3 1.5
   vertex 7 3 0
   vertex 3.5 3 0
  endloop
 endfacet
 facet normal 0 1 -0
  outer loop
   vertex 7 3 1.5
   vertex 3.5 3 3
   vertex 7 3 3
  endloop
 endfacet
 facet normal -0 1 0
  outer loop
   vertex 0 3 1.5
   vertex 7 3 1.5
   vertex 3.5 3 0
  endloop
 endfacet
 facet normal 0 1 0
  outer loop
   vertex 7 3 1.5
   vertex 0 3 1.5
   vertex 3.5 3 3
  endloop
 endfacet
 facet normal 0 1 0
  outer loop
   vertex 0 3 1.5
   vertex 0 3 3
   vertex 3.5 3 3
  endloop
 endfacet
 facet normal 0 1 0
  outer loop
   vertex 0 3 0
   vertex 0 3 1.5
   vertex 3.5 3 0
  endloop
 endfacet
 facet normal -1 0 -0
  outer loop
   vertex 0 3 1.5
   vertex 0 3 0
   vertex 0 1.5 0
  endloop
 endfacet
 facet normal -1 0 0
  outer loop
   vertex 0 3 1.5
   vertex 0 1.5 3
   vertex 0 3 3
  endloop
 endfacet
 facet normal -1 0 0
  outer loop
   vertex 0 0 1.5
   vertex 0 3 1.5
   vertex 0 1.5 0
  endloop
 endfacet
 facet normal -1 0 0
  outer loop
   vertex 0 3 1.5
   vertex 0 0 1.5
   vertex 0 1.5 3
  endloop
 endfacet
 facet normal -1 0 0
  outer loop
   vertex 0 0 1.5
   vertex 0 0 3
   vertex 0 1.5 3
  endloop
 endfacet
 facet normal -1 0 0
  outer loop
   vertex 0 0 0
   vertex 0 0 1.5
   vertex 0 1.5 0
  endloop
 endfacet
 facet normal 0 0 -1
  outer loop
   vertex 3.5 0 0
   vertex 0 0 0
   vertex 0 1.5 0
  endloop
 endfacet
 facet normal 0 0 -1
  outer loop
   vertex 3.5 0 0
   vertex 7 1.5 0
   vertex 7 0 0
  endloop
 endfacet
 facet normal 0 -0 -1
  outer loop
   vertex 3.5 3 0
   vertex 3.5 0 0
   vertex 0 1.5 0
  endloop
 endfacet
 facet normal 0 0 -1
  outer loop
   vertex 3.5 0 0
   vertex 3.5 3 0
   vertex 7 1.5 0
  endloop
 endfacet
 facet normal 0 0 -1
  outer loop
   vertex 3.5 3 0
   vertex 7 3 0
   vertex 7 1.5 0
  endloop
 endfacet
 facet normal 0 0 -1
  outer loop
   vertex 0 3 0
   vertex 3.5 3 0
   vertex 0 1.5 0
  endloop
 endfacet
 facet normal 0 0 1
  outer loop
   vertex 0 1.5 3
   vertex 0 0 3
   vertex 3.5 0 3
  endloop
 endfacet
 facet normal 0 0 1
  outer loop
   vertex 0 1.5 3
   vertex 3.5 3 3
   vertex 0 3 3
  endloop
 endfacet
 facet normal 0 0 1
  outer loop
   vertex 7 1.5 3
   vertex 0 1.5 3
   vertex 3.5 0 3
  endloop
 endfacet
 facet normal 0 0 1
  outer loop
   vertex 0 1.5 3
   vertex 7 1.5 3
   vertex 3.5 3 3
  endloop
 endfacet
 facet normal 0 -0 1
  outer loop
   vertex 7 1.5 3
   vertex 7 3 3
   vertex 3.5 3 3
  endloop
 endfacet
 facet normal 0 -0 1
  outer loop
   vertex 7 0 3
   vertex 7 1.5 3
   vertex 3.5 0 3
  endloop
 endfacet
endsolid buildings
