solid buildings
 facet normal 0 -1 0
  outer loop
   vertex 0 6 1.5
   vertex 0 6 0
   vertex 3.5 6 0
  endloop
 endfacet
 facet normal 0 -1 0
  outer loop
   vertex 0 6 1.5
   vertex 3.5 6 3
   vertex 0 6 3
  endloop
 endfacet
 facet normal -0 -1 0
  outer loop
   vertex 7 6 1.5
   vertex 0 6 1.5
   vertex 3.5 6 0
  endloop
 endfacet
 facet normal 0 -1 0
  outer loop
   vertex 0 6 1.5
   vertex 7 6 1.5
   vertex 3.5 6 3
  endloop
 endfacet
 facet normal 0 -1 0
  outer loop
   vertex 7 6 1.5
   vertex 7 6 3
   vertex 3.5 6 3
  endloop
 endfacet
 facet normal 0 -1 0
  outer loop
   vertex 7 6 0
   vertex 7 6 1.5
   vertex 3.5 6 0
  endloop
 endfacet
 facet normal 1 0 0
  outer loop
   vertex 7 6 1.5
   vertex 7 6 0
   vertex 7 7.5 0
  endloop
 endfacet
 facet normal 1 0 0
  outer loop
   vertex 7 6 1.5
   vertex 7 7.5 3
   vertex 7 6 3
  endloop
 endfacet
 facet normal 1 0 0
  outer loop
   vertex 7 9 1.5
   vertex 7 6 1.5
   vertex 7 7.5 0
  endloop
 endfacet
 facet normal 1 0 0
  outer loop
   vertex 7 6 1.5
   vertex 7 9 1.5
   vertex 7 7.5 3
  endloop
 endfacet
 facet normal 1 0 -0
  outer loop
   vertex 7 9 1.5
   vertex 7 9 3
   vertex 7 7.5 3
  endloop
 endfacet
 facet normal 1 0 -0
  outer loop
   vertex 7 9 0
   vertex 7 9 1.5
   vertex 7 7.5 0
  endloop
 endfacet
 facet normal 0 1 0
  outer loop
   vertex 7 9 1.5
   vertex 7 9 0
   vertex 3.5 9 0
  endloop
 endfacet
 facet normal 0 1 -0
  outer loop
   vertex 7 9 1.5
   vertex 3.5 9 3
   vertex 7 9 3
  endloop
 endfacet
 facet normal -0 1 0
  outer loop
   vertex 0 9 1.5
   vertex 7 9 1.5
   vertex 3.5 9 0
  endloop
 endfacet
 facet normal 0 1 0
  outer loop
   vertex 7 9 1.5
   vertex 0 9 1.5
   vertex 3.5 9 3
  endloop
 endfacet
 facet normal 0 1 0
  outer loop
   vertex 0 9 1.5
   vertex 0 9 3
   vertex 3.5 9 3
  endloop
 endfacet
 facet normal 0 1 0
  outer loop
   vertex 0 9 0
   vertex 0 9 1.5
   vertex 3.5 9 0
  endloop
 endfacet
 facet normal -1 0 -0
  outer loop
   vertex 0 9 1.5
   vertex 0 9 0
   vertex 0 7.5 0
  endloop
 endfacet
 facet normal -1 0 0
  outer loop
   vertex 0 9 1.5
   vertex 0 7.5 3
   vertex 0 9 3
  endloop
 endfacet
 facet normal -1 0 0
  outer loop
   vertex 0 6 1.5
   vertex 0 9 1.5
   vertex 0 7.5 0
  endloop
 endfacet
 facet normal -1 0 0
  outer loop
   vertex 0 9 1.5
   vertex 0 6 1.5
   vertex 0 7.5 3
  endloop
 endfacet
 facet normal -1 0 0
  outer loop
   vertex 0 6 1.5
   vertex 0 6 3
   vertex 0 7.5 3
  endloop
 endfacet
 facet normal -1 0 0
  outer loop
   vertex 0 6 0
   vertex 0 6 1.5
   vertex 0 7.5 0
  endloop
 endfacet
 facet normal 0 0 -1
  outer loop
   vertex 3.5 6 0
   vertex 0 6 0
   vertex 0 7.5 0
  endloop
 endfacet
 facet normal 0 0 -1
  outer loop
   vertex 3.5 6 0
   vertex 7 7.5 0
   vertex 7 6 0
  endloop
 endfacet
 facet normal 0 -0 -1
  outer loop
   vertex 3.5 9 0
   vertex 3.5 6 0
   vertex 0 7.5 0
  endloop
 endfacet
 facet normal 0 0 -1
  outer loop
   vertex 3.5 6 0
   vertex 3.5 9 0
   vertex 7 7.5 0
  endloop
 endfacet
 facet normal 0 0 -1
  outer loop
   vertex 3.5 9 0
   vertex 7 9 0
   vertex 7 7.5 0
  endloop
 endfacet
 facet normal 0 0 -1
  outer loop
   vertex 0 9 0
   vertex 3.5 9 0
   vertex 0 7.5 0
  endloop
 endfacet
 facet normal 0 0 1
  outer loop
   vertex 0 7.5 3
   vertex 0 6 3
   vertex 3.5 6 3
  endloop
 endfacet
 facet normal 0 0 1
  outer loop
   vertex 0 7.5 3
   vertex 3.5 9 3
   vertex 0 9 3
  endloop
 endfacet
 facet normal 0 0 1
  outer loop
   vertex 7 7.5 3
   vertex 0 7.5 3
   vertex 3.5 6 3
  endloop
 endfacet
 facet normal 0 0 1
  outer loop
   vertex 0 7.5 3
   vertex 7 7.5 3
   vertex 3.5 9 3
  endloop
 endfacet
 facet normal 0 -0 1
  outer loop
   vertex 7 7.5 3
   vertex 7 9 3
   vertex 3.5 9 3
  endloop
 endfacet
 facet normal 0 -0 1
  outer loop
   vertex 7 6 3
   vertex 7 7.5 3
   vertex 3.5 6 3
  endloop
 endfacet
endsolid buildings
