solid buildings
 facet normal 0 -1 0
  outer loop
   vertex 0 24 1.5
   vertex 0 24 0
   vertex 3.5 24 0
  endloop
 endfacet
 facet normal 0 -1 0
  outer loop
   vertex 0 24 1.5
   vertex 3.5 24 3
   vertex 0 24 3
  endloop
 endfacet
 facet normal -0 -1 0
  outer loop
   vertex 7 24 1.5
   vertex 0 24 1.5
   vertex 3.5 24 0
  endloop
 endfacet
 facet normal 0 -1 0
  outer loop
   vertex 0 24 1.5
   vertex 7 24 1.5
   vertex 3.5 24 3
  endloop
 endfacet
 facet normal 0 -1 0
  outer loop
   vertex 7 24 1.5
   vertex 7 24 3
   vertex 3.5 24 3
  endloop
 endfacet
 facet normal 0 -1 0
  outer loop
   vertex 7 24 0
   vertex 7 24 1.5
   vertex 3.5 24 0
  endloop
 endfacet
 facet normal 1 0 0
  outer loop
   vertex 7 24 1.5
   vertex 7 24 0
   vertex 7 25.5 0
  endloop
 endfacet
 facet normal 1 0 0
  outer loop
   vertex 7 24 1.5
   vertex 7 25.5 3
   vertex 7 24 3
  endloop
 endfacet
 facet normal 1 0 0
  outer loop
   vertex 7 27 1.5
   vertex 7 24 1.5
   vertex 7 25.5 0
  endloop
 endfacet
 facet normal 1 0 0
  outer loop
   vertex 7 24 1.5
   vertex 7 27 1.5
   vertex 7 25.5 3
  endloop
 endfacet
 facet normal 1 0 -0
  outer loop
   vertex 7 27 1.5
   vertex 7 27 3
   vertex 7 25.5 3
  endloop
 endfacet
 facet normal 1 0 -0
  outer loop
   vertex 7 27 0
   vertex 7 27 1.5
   vertex 7 25.5 0
  endloop
 endfacet
 facet normal 0 1 0
  outer loop
   vertex 7 27 1.5
   vertex 7 27 0
   vertex 3.5 27 0
  endloop
 endfacet
 facet normal 0 1 -0
  outer loop
   vertex 7 27 1.5
   vertex 3.5 27 3
   vertex 7 27 3
  endloop
 endfacet
 facet normal -0 1 0
  outer loop
   vertex 0 27 1.5
   vertex 7 27 1.5
   vertex 3.5 27 0
  endloop
 endfacet
 facet normal 0 1 0
  outer loop
   vertex 7 27 1.5
   vertex 0 27 1.5
   vertex 3.5 27 3
  endloop
 endfacet
 facet normal 0 1 0
  outer loop
   vertex 0 27 1.5
   vertex 0 27 3
   vertex 3.5 27 3
  endloop
 endfacet
 facet normal 0 1 0
  outer loop
   vertex 0 27 0
   vertex 0 27 1.5
   vertex 3.5 27 0
  endloop
 endfacet
 facet normal -1 0 -0
  outer loop
   vertex 0 27 1.5
   vertex 0 27 0
   vertex 0 25.5 0
  endloop
 endfacet
 facet normal -1 0 0
  outer loop
   vertex 0 27 1.5
   vertex 0 25.5 3
   vertex 0 27 3
  endloop
 endfacet
 facet normal -1 0 0
  outer loop
   vertex 0 24 1.5
   vertex 0 27 1.5
   vertex 0 25.5 0
  endloop
 endfacet
 facet normal -1 0 0
  outer loop
   vertex 0 27 1.5
   vertex 0 24 1.5
   vertex 0 25.5 3
  endloop
 endfacet
 facet normal -1 0 0
  outer loop
   vertex 0 24 1.5
   vertex 0 24 3
   vertex 0 25.5 3
  endloop
 endfacet
 facet normal -1 0 0
  outer loop
   vertex 0 24 0
   vertex 0 24 1.5
   vertex 0 25.5 0
  endloop
 endfacet
 facet normal 0 0 -1
  outer loop
   vertex 3.5 24 0
   vertex 0 24 0
   vertex 0 25.5 0
  endloop
 endfacet
 facet normal 0 0 -1
  outer loop
   vertex 3.5 24 0
   vertex 7 25.5 0
   vertex 7 24 0
  endloop
 endfacet
 facet normal 0 -0 -1
  outer loop
   vertex 3.5 27 0
   vertex 3.5 24 0
   vertex 0 25.5 0
  endloop
 endfacet
 facet normal 0 0 -1
  outer loop
   vertex 3.5 24 0
   vertex 3.5 27 0
   vertex 7 25.5 0
  endloop
 endfacet
 facet normal 0 0 -1
  outer loop
   vertex 3.5 27 0
   vertex 7 27 0
   vertex 7 25.5 0
  endloop
 endfacet
 facet normal 0 0 -1
  outer loop
   vertex 0 27 0
   vertex 3.5 27 0
   vertex 0 25.5 0
  endloop
 endfacet
 facet normal 0 0 1
  outer loop
   vertex 0 25.5 3
   vertex 0 24 3
   vertex 3.5 24 3
  endloop
 endfacet
 facet normal 0 0 1
  outer loop
   vertex 0 25.5 3
   vertex 3.5 27 3
   vertex 0 27 3
  endloop
 endfacet
 facet normal 0 0 1
  outer loop
   vertex 7 25.5 3
   vertex 0 25.5 3
   vertex 3.5 24 3
  endloop
 endfacet
 facet normal 0 0 1
  outer loop
   vertex 0 25.5 3
   vertex 7 25.5 3
   vertex 3.5 27 3
  endloop
 endfacet
 facet normal 0 -0 1
  outer loop
   vertex 7 25.5 3
   vertex 7 27 3
   vertex 3.5 27 3
  endloop
 endfacet
 facet normal 0 -0 1
  outer loop
   vertex 7 24 3
   vertex 7 25.5 3
   vertex 3.5 24 3
  endloop
 endfacet
endsolid buildings
