solid buildings
 facet normal 0 -1 0
  outer loop
   vertex 0 18 1.5
   vertex 0 18 0
   vertex 3.5 18 0
  endloop
 endfacet
 facet normal 0 -1 0
  outer loop
   vertex 0 18 1.5
   vertex 3.5 18 3
   vertex 0 18 3
  endloop
 endfacet
 facet normal -0 -1 0
  outer loop
   vertex 7 18 1.5
   vertex 0 18 1.5
   vertex 3.5 18 0
  endloop
 endfacet
 facet normal 0 -1 0
  outer loop
   vertex 0 18 1.5
   vertex 7 18 1.5
   vertex 3.5 18 3
  endloop
 endfacet
 facet normal 0 -1 0
  outer loop
   vertex 7 18 1.5
   vertex 7 18 3
   vertex 3.5 18 3
  endloop
 endfacet
 facet normal 0 -1 0
  outer loop
   vertex 7 18 0
   vertex 7 18 1.5
   vertex 3.5 18 0
  endloop
 endfacet
 facet normal 1 0 0
  outer loop
   vertex 7 18 1.5
   vertex 7 18 0
   vertex 7 19.5 0
  endloop
 endfacet
 facet normal 1 0 0
  outer loop
   vertex 7 18 1.5
   vertex 7 19.5 3
   vertex 7 18 3
  endloop
 endfacet
 facet normal 1 0 0
  outer loop
   vertex 7 21 1.5
   vertex 7 18 1.5
   vertex 7 19.5 0
  endloop
 endfacet
 facet normal 1 0 0
  outer loop
   vertex 7 18 1.5
   vertex 7 21 1.5
   vertex 7 19.5 3
  endloop
 endfacet
 facet normal 1 0 -0
  outer loop
   vertex 7 21 1.5
   vertex 7 21 3
   vertex 7 19.5 3
  endloop
 endfacet
 facet normal 1 0 -0
  outer loop
   vertex 7 21 0
   vertex 7 21 1.5
   vertex 7 19.5 0
  endloop
 endfacet
 facet normal 0 1 0
  outer loop
   vertex 7 21 1.5
   vertex 7 21 0
   vertex 3.5 21 0
  endloop
 endfacet
 facet normal 0 1 -0
  outer loop
   vertex 7 21 1.5
   vertex 3.5 21 3
   vertex 7 21 3
  endloop
 endfacet
 facet normal -0 1 0
  outer loop
   vertex 0 21 1.5
   vertex 7 21 1.5
   vertex 3.5 21 0
  endloop
 endfacet
 facet normal 0 1 0
  outer loop
   vertex 7 21 1.5
   vertex 0 21 1.5
   vertex 3.5 21 3
  endloop
 endfacet
 facet normal 0 1 0
  outer loop
   vertex 0 21 1.5
   vertex 0 21 3
   vertex 3.5 21 3
  endloop
 endfacet
 facet normal 0 1 0
  outer loop
   vertex 0 21 0
   vertex 0 21 1.5
   vertex 3.5 21 0
  endloop
 endfacet
 facet normal -1 0 -0
  outer loop
   vertex 0 21 1.5
   vertex 0 21 0
   vertex 0 19.5 0
  endloop
 endfacet
 facet normal -1 0 0
  outer loop
   vertex 0 21 1.5
   vertex 0 19.5 3
   vertex 0 21 3
  endloop
 endfacet
 facet normal -1 0 0
  outer loop
   vertex 0 18 1.5
   vertex 0 21 1.5
   vertex 0 19.5 0
  endloop
 endfacet
 facet normal -1 0 0
  outer loop
   vertex 0 21 1.5
   vertex 0 18 1.5
   vertex 0 19.5 3
  endloop
 endfacet
 facet normal -1 0 0
  outer loop
   vertex 0 18 1.5
   vertex 0 18 3
   vertex 0 19.5 3
  endloop
 endfacet
 facet normal -1 0 0
  outer loop
   vertex 0 18 0
   vertex 0 18 1.5
   vertex 0 19.5 0
  endloop
 endfacet
 facet normal 0 0 -1
  outer loop
   vertex 3.5 18 0
   vertex 0 18 0
   vertex 0 19.5 0
  endloop
 endfacet
 facet normal 0 0 -1
  outer loop
   vertex 3.5 18 0
   vertex 7 19.5 0
   vertex 7 18 0
  endloop
 endfacet
 facet normal 0 -0 -1
  outer loop
   vertex 3.5 21 0
   vertex 3.5 18 0
   vertex 0 19.5 0
  endloop
 endfacet
 facet normal 0 0 -1
  outer loop
   vertex 3.5 18 0
   vertex 3.5 21 0
   vertex 7 19.5 0
  endloop
 endfacet
 facet normal 0 0 -1
  outer loop
   vertex 3.5 21 0
   vertex 7 21 0
   vertex 7 19.5 0
  endloop
 endfacet
 facet normal 0 0 -1
  outer loop
   vertex 0 21 0
   vertex 3.5 21 0
   vertex 0 19.5 0
  endloop
 endfacet
 facet normal 0 0 1
  outer loop
   vertex 0 19.5 3
   vertex 0 18 3
   vertex 3.5 18 3
  endloop
 endfacet
 facet normal 0 0 1
  outer loop
   vertex 0 19.5 3
   vertex 3.5 21 3
   vertex 0 21 3
  endloop
 endfacet
 facet normal 0 0 1
  outer loop
   vertex 7 19.5 3
   vertex 0 19.5 3
   vertex 3.5 18 3
  endloop
 endfacet
 facet normal 0 0 1
  outer loop
   vertex 0 19.5 3
   vertex 7 19.5 3
   vertex 3.5 21 3
  endloop
 endfacet
 facet normal 0 -0 1
  outer loop
   vertex 7 19.5 3
   vertex 7 21 3
   vertex 3.5 21 3
  endloop
 endfacet
 facet normal 0 -0 1
  outer loop
   vertex 7 18 3
   vertex 7 19.5 3
   vertex 3.5 18 3
  endloop
 endfacet
endsolid buildings
